<svg height="512" viewBox="0 0 64 64" width="512" xmlns="http://www.w3.org/2000/svg"><g id="Money_bag" data-name="Money bag"><path d="m46.95 12h-7.89c-5.25 2.66-9.06 10.19-9.06 16 0 7.18 5.82 11 13 11s13-3.82 13-11c0-5.8-3.8-13.33-9.05-16z" fill="#a97c50"/><path d="m27.414 54.586a2 2 0 0 1 1.414-.586h13.1a3.925 3.925 0 0 0 2-.54l15.522-8.96a3.006 3.006 0 0 0 1.1-4.1 2.932 2.932 0 0 0 -1.25-1.17 3 3 0 0 0 -2.85.07l-11.64 6.72a2.814 2.814 0 0 1 -.69 1.1 2.993 2.993 0 0 1 -2.12.88 2.993 2.993 0 0 0 2.12-.88 2.814 2.814 0 0 0 .69-1.1 2.776 2.776 0 0 0 .18-1.32 2.955 2.955 0 0 0 -.99-1.95 3.062 3.062 0 0 0 -2.01-.75h-8.162a2 2 0 0 1 -1.414-.586l-.244-.244a4 4 0 0 0 -2.825-1.17h-7.685c-.13 0-.26.01-.4.02a3.989 3.989 0 0 0 -2.43 1.15l-3.33 3.33 11 11z" fill="#ffbcab"/><path d="m28 57-1.5-1.5-11-11-1.64-1.64-10.86 11.14v7h21z" fill="#006df0"/><path d="m47 12v-3h-8v3h.06 7.89z" fill="#c49a6c"/><path d="m50 3h-14l3 6h8z" fill="#8b5e3c"/><path d="m46.95 12h-2c5.25 2.67 9.05 10.2 9.05 16 0 6.842-5.289 10.625-12 10.966.331.017.662.034 1 .034 7.18 0 13-3.82 13-11 0-5.8-3.8-13.33-9.05-16z" fill="#8b5e3c"/><path d="m48 3-3 6h2l3-6z" fill="#754c29"/><g fill="#231f20"><path d="m61.42 39.9a4.047 4.047 0 0 0 -5.47-1.47l-10.04 5.8a3.916 3.916 0 0 0 -1.25-2.23 4.041 4.041 0 0 0 -2.67-1h-8.16a.99.99 0 0 1 -.71-.29l-.24-.25a4.988 4.988 0 0 0 -3.53-1.46h-7.69c-.15 0-.3.01-.5.02a5.1 5.1 0 0 0 -3.04 1.44l-2.62 2.63-.93-.94a.98.98 0 0 0 -.72-.29 1.017 1.017 0 0 0 -.71.3l-10.86 11.14a1.017 1.017 0 0 0 -.28.7v7a1 1 0 0 0 1 1h21a1.033 1.033 0 0 0 .71-.29l4-4a1.008 1.008 0 0 0 0-1.42l-.8-.79.21-.21a.99.99 0 0 1 .71-.29h13.1a4.9 4.9 0 0 0 2.5-.67l15.52-8.96a4.019 4.019 0 0 0 1.47-5.47zm-37.83 20.1h-19.59v-5.59l9.87-10.13 12.72 12.72zm35.36-16.37-15.53 8.97a2.942 2.942 0 0 1 -1.49.4h-13.1a2.956 2.956 0 0 0 -2.12.88l-.21.21-9.59-9.59 2.63-2.62a2.936 2.936 0 0 1 1.8-.86c.11-.01.22-.02.32-.02h7.69a2.933 2.933 0 0 1 2.11.88l.25.24a2.956 2.956 0 0 0 2.12.88h8.16a2.02 2.02 0 0 1 1.34.5 1.912 1.912 0 0 1 .66 1.28 1.785 1.785 0 0 1 -.13.92 1.862 1.862 0 0 1 -.45.71 1.983 1.983 0 0 1 -1.41.59h-6.58a1 1 0 0 0 0 2h6.58a4 4 0 0 0 2.83-1.17 3.911 3.911 0 0 0 .78-1.12l11.34-6.54a1.991 1.991 0 0 1 1.91-.04 1.85 1.85 0 0 1 .82.77 1.949 1.949 0 0 1 .27 1 1.97 1.97 0 0 1 -1 1.73z"/><path d="m42 23h2a1 1 0 0 1 1 1 1 1 0 0 0 2 0 3 3 0 0 0 -3-3v-1a1 1 0 0 0 -2 0v1a3 3 0 0 0 0 6h2a1 1 0 0 1 0 2h-2a1 1 0 0 1 -1-1 1 1 0 0 0 -2 0 3 3 0 0 0 3 3v1a1 1 0 0 0 2 0v-1a3 3 0 0 0 0-6h-2a1 1 0 0 1 0-2z"/><path d="m29 28c0 7.178 5.626 12 14 12s14-4.822 14-12c0-5.578-3.428-13.309-9-16.549v-2.215l2.9-5.789a1 1 0 0 0 -.9-1.447h-14a1 1 0 0 0 -.9 1.447l2.9 5.789v2.22c-5.573 3.237-9 10.964-9 16.544zm17-17h-6v-1h6zm9 17c0 7.381-6.464 10-12 10s-12-2.619-12-10c0-5.148 3.338-12.336 8.325-15h7.36c4.98 2.67 8.315 9.857 8.315 15zm-6.618-24-2 4h-6.764l-2-4z"/></g></g></svg>