<?xml version="1.0" encoding="iso-8859-1"?>
<!-- Generator: Adobe Illustrator 19.0.0, SVG Export Plug-In . SVG Version: 6.00 Build 0)  -->
<svg version="1.1" id="Capa_1" xmlns="http://www.w3.org/2000/svg" xmlns:xlink="http://www.w3.org/1999/xlink" x="0px" y="0px"
	 viewBox="0 0 512 512" style="enable-background:new 0 0 512 512;" xml:space="preserve">
<path style="fill:#29ABE2;" d="M118.857,420.571l-73.143-27.429l73.143-27.429h347.429v54.857H118.857z"/>
<path style="fill:#0071BC;" d="M393.143,365.714h36.571v54.857h-36.571V365.714z"/>
<path style="fill:#E6E6E6;" d="M0,45.714h512V320H0V45.714z"/>
<g>
	<path style="fill:#FBB03B;" d="M402.286,466.286H283.429V448h118.857c10.103,0,18.286-8.183,18.286-18.286v-64h18.286v64
		C438.857,449.911,422.482,466.286,402.286,466.286z"/>
	<path style="fill:#FBB03B;" d="M384,365.714h18.286v54.857H384V365.714z"/>
</g>
<path style="fill:#0071BC;" d="M118.857,365.714l-73.143,27.429l73.143,27.429V365.714z"/>
<path style="fill:#29ABE2;" d="M411.429,283.429c-5.047,0-9.143-4.096-9.143-9.143V261.65l-41.627,20.864
	c-4.517,2.258-10.011,0.43-12.27-4.096c-0.64-1.28-0.969-2.697-0.96-4.133V261.65l-41.627,20.864l-8.174-16.366l54.857-27.429
	c4.517-2.258,10.011-0.43,12.27,4.096c0.622,1.253,0.951,2.633,0.96,4.041v12.635l41.627-20.818
	c4.517-2.258,10.011-0.43,12.27,4.096c0.631,1.262,0.96,2.67,0.96,4.087v12.635l41.627-20.818l8.174,16.366l-54.857,27.429
	C414.245,283.099,412.846,283.429,411.429,283.429z"/>
<g>
	<path style="fill:#999999;" d="M45.714,118.857h128v18.286h-128V118.857z"/>
	<path style="fill:#999999;" d="M100.571,82.286h73.143v18.286h-73.143V82.286z"/>
	<path style="fill:#999999;" d="M128,219.429h128v18.286H128V219.429z"/>
	<path style="fill:#999999;" d="M128,256h128v18.286H128V256z"/>
	<path style="fill:#999999;" d="M182.857,182.857H256v18.286h-73.143V182.857z"/>
</g>
<g>
	<path style="fill:#FBB03B;" d="M265.143,128h-36.571V91.429h237.714V128H301.714H265.143z"/>
	<path style="fill:#FBB03B;" d="M91.429,210.286v-1.335c-0.046-11.365-7.442-21.385-18.286-24.768v-10.469H54.857v10.469
		c-13.714,4.27-21.367,18.843-17.106,32.549c2.112,6.775,6.894,12.398,13.248,15.561l17.819,8.914
		c3.858,1.929,5.422,6.619,3.493,10.478c-1.317,2.642-4.023,4.315-6.976,4.315h-2.67c-4.306-0.009-7.799-3.502-7.808-7.808v-1.335
		H36.571v1.335c0.046,11.365,7.442,21.385,18.286,24.768v10.469h18.286V272.96c13.714-4.27,21.367-18.843,17.106-32.549
		c-2.112-6.775-6.894-12.398-13.248-15.561l-17.819-8.914c-3.858-1.929-5.422-6.619-3.493-10.478
		c1.317-2.642,4.023-4.315,6.976-4.315h2.67c4.306,0.009,7.799,3.502,7.808,7.808v1.335H91.429z"/>
</g>
<g>
	<path style="fill:#999999;" d="M64,82.286h18.286v18.286H64V82.286z"/>
	<path style="fill:#999999;" d="M146.286,182.857h18.286v18.286h-18.286V182.857z"/>
	<path style="fill:#999999;" d="M310.857,182.857h18.286v18.286h-18.286V182.857z"/>
	<path style="fill:#999999;" d="M347.429,182.857h18.286v18.286h-18.286V182.857z"/>
	<path style="fill:#999999;" d="M384,182.857h18.286v18.286H384V182.857z"/>
	<path style="fill:#999999;" d="M420.571,182.857h18.286v18.286h-18.286V182.857z"/>
	<path style="fill:#999999;" d="M457.143,182.857h18.286v18.286h-18.286V182.857z"/>
</g>
<g>
</g>
<g>
</g>
<g>
</g>
<g>
</g>
<g>
</g>
<g>
</g>
<g>
</g>
<g>
</g>
<g>
</g>
<g>
</g>
<g>
</g>
<g>
</g>
<g>
</g>
<g>
</g>
<g>
</g>
</svg>
